<?xml version="1.0" encoding="UTF-8" standalone="no"?>
<svg
   width="800"
   height="800"
   version="1.1"
   viewBox="0 0 800.00001 800.00001"
   id="svg23"
   sodipodi:docname="logo.svg"
   xml:space="preserve"
   inkscape:version="1.2.1 (9c6d41e410, 2022-07-14)"
   inkscape:export-filename="logo.png"
   inkscape:export-xdpi="61.439999"
   inkscape:export-ydpi="61.439999"
   xmlns:inkscape="http://www.inkscape.org/namespaces/inkscape"
   xmlns:sodipodi="http://sodipodi.sourceforge.net/DTD/sodipodi-0.dtd"
   xmlns="http://www.w3.org/2000/svg"
   xmlns:svg="http://www.w3.org/2000/svg"><sodipodi:namedview
     id="namedview25"
     pagecolor="#ffffff"
     bordercolor="#666666"
     borderopacity="1.0"
     inkscape:showpageshadow="2"
     inkscape:pageopacity="0.0"
     inkscape:pagecheckerboard="true"
     inkscape:deskcolor="#d1d1d1"
     showgrid="false"
     inkscape:zoom="1.2525"
     inkscape:cx="236.32735"
     inkscape:cy="400"
     inkscape:window-width="2560"
     inkscape:window-height="1377"
     inkscape:window-x="1912"
     inkscape:window-y="-8"
     inkscape:window-maximized="1"
     inkscape:current-layer="svg23" /><defs
     id="defs13"><rect
       x="265.86826"
       y="608.38323"
       width="293.81238"
       height="128.54291"
       id="rect185" /><linearGradient
       id="c"
       x1="407.12"
       x2="98.954"
       y1="401.34"
       y2="714.49"
       gradientUnits="userSpaceOnUse"><stop
         stop-opacity=".42"
         offset="0"
         id="stop2" /><stop
         stop-opacity="0"
         offset="1"
         id="stop4" /></linearGradient><mask
       id="b"
       maskUnits="userSpaceOnUse"><circle
         cx="400"
         cy="652.36"
         r="400"
         color="#000000"
         color-rendering="auto"
         fill="#fff"
         image-rendering="auto"
         shape-rendering="auto"
         solid-color="#000000"
         style="isolation:auto;mix-blend-mode:normal"
         id="circle7" /></mask><mask
       id="a"
       maskUnits="userSpaceOnUse"><circle
         cx="400"
         cy="400"
         r="400"
         color="#000000"
         color-rendering="auto"
         fill="#fff"
         image-rendering="auto"
         shape-rendering="auto"
         solid-color="#000000"
         style="isolation:auto;mix-blend-mode:normal"
         id="circle10" /></mask><rect
       x="265.86826"
       y="608.38323"
       width="293.81238"
       height="128.54291"
       id="rect297" /><filter
       inkscape:collect="always"
       style="color-interpolation-filters:sRGB"
       id="filter976"
       x="-0.065332723"
       y="-0.14621873"
       width="1.1306654"
       height="1.2924375"><feGaussianBlur
         inkscape:collect="always"
         stdDeviation="4.1866535"
         id="feGaussianBlur978" /></filter><linearGradient
       x1="500"
       y1="0"
       x2="500"
       y2="992.58339"
       id="linearGradient-1"
       gradientUnits="userSpaceOnUse"><stop
         stop-color="#2AABEE"
         offset="0%"
         id="stop1347" /><stop
         stop-color="#229ED9"
         offset="100%"
         id="stop1349" /></linearGradient><filter
       inkscape:collect="always"
       style="color-interpolation-filters:sRGB"
       id="filter1738"
       x="-0.26398308"
       y="-0.26398308"
       width="1.5279662"
       height="1.5279662"><feGaussianBlur
         inkscape:collect="always"
         stdDeviation="109.99295"
         id="feGaussianBlur1740" /></filter></defs><g
     transform="translate(0 -252.36)"
     shape-rendering="auto"
     id="g21"><circle
       cx="400"
       cy="652.36"
       r="400"
       color="#000000"
       color-rendering="auto"
       fill="#1c8adb"
       image-rendering="auto"
       solid-color="#000000"
       style="isolation:auto;mix-blend-mode:normal"
       id="circle15" /><path
       transform="translate(0 252.36)"
       d="m162.63 246.23-162.57 162.57c3.125 175.05 69.882 380.05 379.97 390.87l257.33-257.33v-296.11z"
       color="#000000"
       color-rendering="auto"
       fill="url(#c)"
       image-rendering="auto"
       mask="url(#a)"
       solid-color="#000000"
       style="isolation:auto;mix-blend-mode:normal"
       id="path17" /><path
       d="m162.63 498.59v296.11h474.73v-296.11h-474.73zm6.9439 7.4692h1.7491l163.61 140.59-163.61 140.58h-1.7517v-281.17zm459.29 0h1.5521v281.17h-1.5548l-159.91-140.58-66.243 58.235 226.15-198.82zm-448.95 0.042h440.15l-217.56 191.27-222.59-191.27zm158.7 144.74 63.937 54.937 62.493-54.937 155.13 136.39h-440.29l158.73-136.39z"
       color="#000000"
       color-rendering="auto"
       fill="#fff"
       image-rendering="auto"
       mask="url(#b)"
       solid-color="#000000"
       style="isolation:auto;mix-blend-mode:normal"
       id="path19" /></g><g
     aria-label="MTL"
     transform="matrix(2.007109,0,0,2.007109,-305.55503,-666.83663)"
     id="text295"
     style="font-size:96px;line-height:1.25;white-space:pre;shape-inside:url(#rect297);display:inline;filter:url(#filter976)"><path
       d="m 271.44727,695.96652 v -68.71875 h 17.01562 l 10.21875,46.875 10.125,-46.875 h 17.0625 v 68.71875 h -10.54687 v -54.09375 l -11.20313,54.09375 h -10.96875 l -11.10937,-54.09375 v 54.09375 z"
       style="font-weight:bold;font-stretch:condensed;font-family:Arial;-inkscape-font-specification:'Arial Bold Condensed'"
       id="path1790" /><path
       d="m 349.86914,695.96652 v -57.09375 h -16.73437 v -11.625 h 44.76562 v 11.625 h -16.6875 v 57.09375 z"
       style="font-weight:bold;font-stretch:condensed;font-family:Arial;-inkscape-font-specification:'Arial Bold Condensed'"
       id="path1792" /><path
       d="m 385.58789,695.96652 v -68.15625 h 11.34375 v 56.57813 h 28.3125 v 11.57812 z"
       style="font-weight:bold;font-stretch:condensed;font-family:Arial;-inkscape-font-specification:'Arial Bold Condensed'"
       id="path1794" /></g><g
     aria-label="MTL"
     transform="matrix(2.007109,0,0,2.007109,-299.1678,-672.42545)"
     id="text183"
     style="font-size:96px;line-height:1.25;white-space:pre;shape-inside:url(#rect185);display:inline"><path
       d="m 271.44727,695.96652 v -68.71875 h 17.01562 l 10.21875,46.875 10.125,-46.875 h 17.0625 v 68.71875 h -10.54687 v -54.09375 l -11.20313,54.09375 h -10.96875 l -11.10937,-54.09375 v 54.09375 z"
       style="font-weight:bold;font-stretch:condensed;font-family:Arial;-inkscape-font-specification:'Arial Bold Condensed';fill:#ffffff"
       id="path1783" /><path
       d="m 349.86914,695.96652 v -57.09375 h -16.73437 v -11.625 h 44.76562 v 11.625 h -16.6875 v 57.09375 z"
       style="font-weight:bold;font-stretch:condensed;font-family:Arial;-inkscape-font-specification:'Arial Bold Condensed';fill:#ffffff"
       id="path1785" /><path
       d="m 385.58789,695.96652 v -68.15625 h 11.34375 v 56.57813 h 28.3125 v 11.57812 z"
       style="font-weight:bold;font-stretch:condensed;font-family:Arial;-inkscape-font-specification:'Arial Bold Condensed';fill:#ffffff"
       id="path1787" /></g><g
     id="g1734"
     stroke="none"
     stroke-width="1"
     fill="none"
     fill-rule="evenodd"
     transform="matrix(0.14570858,0,0,0.14570858,323.1487,60.120643)"
     style="fill:#000000;filter:url(#filter1738)"><circle
       id="circle1730"
       fill="url(#linearGradient-1)"
       cx="500"
       cy="500"
       r="500"
       style="fill:#000000" /><path
       d="m 226.32842,494.72207 c 145.76015,-63.50539 242.95642,-105.37202 291.5888,-125.59991 138.85531,-57.75473 167.70826,-67.78735 186.51421,-68.11863 4.13619,-0.0729 13.38441,0.95221 19.37502,5.81318 5.05835,4.1045 6.4501,9.6491 7.1161,13.54062 0.666,3.89152 1.49533,12.7565 0.83608,19.68334 -7.52462,79.06182 -40.08353,270.924 -56.64765,359.4746 -7.0089,37.46907 -20.80964,50.03226 -34.17036,51.26174 -29.03594,2.67193 -51.0845,-19.18898 -79.20723,-37.62377 -44.0065,-28.84682 -68.86738,-46.80406 -111.58332,-74.95323 -49.36565,-32.53123 -17.36395,-50.41096 10.76939,-79.63145 7.36263,-7.64714 135.29562,-124.01208 137.77177,-134.5682 0.30968,-1.32023 0.59708,-6.24138 -2.32649,-8.83993 -2.92357,-2.59855 -7.23851,-1.70995 -10.35229,-1.00323 -4.41369,1.00174 -74.71466,47.46807 -210.9029,139.39899 -19.95469,13.70243 -38.02904,20.37872 -54.22303,20.02886 -17.85257,-0.3857 -52.19377,-10.09412 -77.72291,-18.39264 -31.31254,-10.17847 -56.19913,-15.55991 -54.03206,-32.8461 1.12874,-9.00372 13.52769,-18.2118 37.19687,-27.62424 z"
       id="path1732"
       fill="#ffffff"
       style="fill:#000000" /></g><g
     id="Artboard"
     stroke="none"
     stroke-width="1"
     fill="none"
     fill-rule="evenodd"
     transform="matrix(0.14570858,0,0,0.14570858,327.14071,56.33222)"><circle
       id="Oval"
       fill="url(#linearGradient-1)"
       cx="500"
       cy="500"
       r="500"
       style="fill:url(#linearGradient-1)" /><path
       d="m 226.32842,494.72207 c 145.76015,-63.50539 242.95642,-105.37202 291.5888,-125.59991 138.85531,-57.75473 167.70826,-67.78735 186.51421,-68.11863 4.13619,-0.0729 13.38441,0.95221 19.37502,5.81318 5.05835,4.1045 6.4501,9.6491 7.1161,13.54062 0.666,3.89152 1.49533,12.7565 0.83608,19.68334 -7.52462,79.06182 -40.08353,270.924 -56.64765,359.4746 -7.0089,37.46907 -20.80964,50.03226 -34.17036,51.26174 -29.03594,2.67193 -51.0845,-19.18898 -79.20723,-37.62377 -44.0065,-28.84682 -68.86738,-46.80406 -111.58332,-74.95323 -49.36565,-32.53123 -17.36395,-50.41096 10.76939,-79.63145 7.36263,-7.64714 135.29562,-124.01208 137.77177,-134.5682 0.30968,-1.32023 0.59708,-6.24138 -2.32649,-8.83993 -2.92357,-2.59855 -7.23851,-1.70995 -10.35229,-1.00323 -4.41369,1.00174 -74.71466,47.46807 -210.9029,139.39899 -19.95469,13.70243 -38.02904,20.37872 -54.22303,20.02886 -17.85257,-0.3857 -52.19377,-10.09412 -77.72291,-18.39264 -31.31254,-10.17847 -56.19913,-15.55991 -54.03206,-32.8461 1.12874,-9.00372 13.52769,-18.2118 37.19687,-27.62424 z"
       id="Path-3"
       fill="#ffffff" /></g></svg>
